<svg width="21" height="20" viewBox="0 0 21 20" fill="none" xmlns="http://www.w3.org/2000/svg">
<path d="M5.38623 11.8724C5.48434 11.3398 6.24759 11.3398 6.3457 11.8724L6.63983 13.469C6.67649 13.668 6.8322 13.8237 7.03119 13.8603L8.62775 14.1544C9.16032 14.2525 9.16033 15.0158 8.62775 15.1139L7.03119 15.408C6.8322 15.4447 6.67649 15.6004 6.63983 15.7994L6.3457 17.3959C6.24759 17.9285 5.48434 17.9285 5.38623 17.3959L5.0921 15.7994C5.05544 15.6004 4.89974 15.4447 4.70074 15.408L3.10419 15.1139C2.57161 15.0158 2.57161 14.2525 3.10419 14.1544L4.70074 13.8603C4.89974 13.8237 5.05544 13.668 5.0921 13.469L5.38623 11.8724Z" fill="#0B82F1"/>
<path d="M12.2143 2.92209C12.3041 2.37739 13.0873 2.37739 13.177 2.92209L13.7426 6.35592C13.7766 6.56225 13.9383 6.72397 14.1447 6.75796L17.5785 7.32355C18.1232 7.41327 18.1232 8.19648 17.5785 8.2862L14.1447 8.8518C13.9383 8.88578 13.7766 9.0475 13.7426 9.25384L13.177 12.6877C13.0873 13.2324 12.3041 13.2324 12.2143 12.6877L11.6487 9.25384C11.6147 9.0475 11.453 8.88578 11.2467 8.8518L7.81284 8.2862C7.26814 8.19648 7.26814 7.41327 7.81284 7.32355L11.2467 6.75796C11.453 6.72397 11.6147 6.56225 11.6487 6.35592L12.2143 2.92209Z" fill="#0B82F1"/>
</svg>
