<svg width="136" height="40" viewBox="0 0 136 40" fill="none" xmlns="http://www.w3.org/2000/svg">
<path d="M0.338 31L8.204 21.37L1.454 12.568H7.862L11.57 17.518L15.278 12.568H21.686L14.936 21.37L22.802 31H16.178L11.57 25.168L6.962 31H0.338ZM28.2464 31.576C26.6864 31.576 25.2884 31.33 24.0524 30.838C22.8284 30.346 21.8084 29.626 20.9924 28.678L23.3144 24.97C24.0824 25.786 24.8864 26.41 25.7264 26.842C26.5664 27.274 27.4064 27.49 28.2464 27.49C28.7144 27.49 29.1164 27.412 29.4524 27.256C29.8004 27.1 30.0704 26.878 30.2624 26.59C30.4664 26.29 30.5684 25.93 30.5684 25.51C30.5684 25.03 30.4304 24.652 30.1544 24.376C29.8904 24.1 29.4824 23.848 28.9304 23.62C28.3784 23.38 27.6644 23.08 26.7884 22.72C26.0444 22.408 25.3304 22.054 24.6464 21.658C23.9624 21.262 23.4044 20.758 22.9724 20.146C22.5524 19.534 22.3424 18.76 22.3424 17.824C22.3424 16.684 22.6604 15.682 23.2964 14.818C23.9324 13.942 24.8084 13.258 25.9244 12.766C27.0524 12.274 28.3484 12.028 29.8124 12.028C30.7244 12.028 31.6784 12.166 32.6744 12.442C33.6824 12.718 34.7564 13.138 35.8964 13.702L34.0064 17.248C32.4584 16.252 31.0724 15.754 29.8484 15.754C29.1644 15.754 28.6184 15.904 28.2104 16.204C27.8024 16.504 27.5984 16.882 27.5984 17.338C27.5984 17.77 27.8084 18.148 28.2284 18.472C28.6604 18.784 29.1824 19.066 29.7944 19.318C30.4184 19.558 31.0124 19.78 31.5764 19.984C32.5004 20.32 33.3164 20.692 34.0244 21.1C34.7444 21.508 35.3084 22.042 35.7164 22.702C36.1244 23.35 36.3284 24.22 36.3284 25.312C36.3284 26.644 36.0044 27.778 35.3564 28.714C34.7204 29.638 33.7964 30.346 32.5844 30.838C31.3844 31.33 29.9384 31.576 28.2464 31.576ZM47.4243 31.576C45.4323 31.576 43.6443 31.15 42.0603 30.298C40.4883 29.434 39.2403 28.264 38.3163 26.788C37.3923 25.312 36.9303 23.644 36.9303 21.784C36.9303 20.416 37.1883 19.138 37.7043 17.95C38.2323 16.762 38.9643 15.724 39.9003 14.836C40.8363 13.936 41.9223 13.24 43.1583 12.748C44.3943 12.244 45.7323 11.992 47.1723 11.992C49.0923 11.992 50.7723 12.394 52.2123 13.198C53.6643 13.99 54.7923 15.094 55.5963 16.51C56.4123 17.926 56.8203 19.576 56.8203 21.46C56.8203 21.616 56.8143 21.754 56.8023 21.874C56.8023 21.982 56.7843 22.192 56.7483 22.504H42.6183C42.6183 23.44 42.8283 24.256 43.2483 24.952C43.6803 25.648 44.2803 26.194 45.0483 26.59C45.8163 26.974 46.7103 27.166 47.7303 27.166C48.6903 27.166 49.5363 26.98 50.2683 26.608C51.0123 26.236 51.7263 25.642 52.4103 24.826L56.3883 26.824C55.5243 28.312 54.3003 29.476 52.7163 30.316C51.1323 31.156 49.3683 31.576 47.4243 31.576ZM42.8163 19.444H51.3843C51.2643 18.736 51.0063 18.124 50.6103 17.608C50.2263 17.092 49.7343 16.696 49.1343 16.42C48.5343 16.144 47.8563 16.006 47.1003 16.006C46.2963 16.006 45.5883 16.144 44.9763 16.42C44.3643 16.696 43.8723 17.092 43.5003 17.608C43.1283 18.124 42.9003 18.736 42.8163 19.444ZM67.7826 31.576C65.7906 31.576 64.0026 31.15 62.4186 30.298C60.8466 29.434 59.5986 28.264 58.6746 26.788C57.7506 25.312 57.2886 23.644 57.2886 21.784C57.2886 20.416 57.5466 19.138 58.0626 17.95C58.5906 16.762 59.3226 15.724 60.2586 14.836C61.1946 13.936 62.2806 13.24 63.5166 12.748C64.7526 12.244 66.0906 11.992 67.5306 11.992C69.4506 11.992 71.1306 12.394 72.5706 13.198C74.0226 13.99 75.1506 15.094 75.9546 16.51C76.7706 17.926 77.1786 19.576 77.1786 21.46C77.1786 21.616 77.1726 21.754 77.1606 21.874C77.1606 21.982 77.1426 22.192 77.1066 22.504H62.9766C62.9766 23.44 63.1866 24.256 63.6066 24.952C64.0386 25.648 64.6386 26.194 65.4066 26.59C66.1746 26.974 67.0686 27.166 68.0886 27.166C69.0486 27.166 69.8946 26.98 70.6266 26.608C71.3706 26.236 72.0846 25.642 72.7686 24.826L76.7466 26.824C75.8826 28.312 74.6586 29.476 73.0746 30.316C71.4906 31.156 69.7266 31.576 67.7826 31.576ZM63.1746 19.444H71.7426C71.6226 18.736 71.3646 18.124 70.9686 17.608C70.5846 17.092 70.0926 16.696 69.4926 16.42C68.8926 16.144 68.2146 16.006 67.4586 16.006C66.6546 16.006 65.9466 16.144 65.3346 16.42C64.7226 16.696 64.2306 17.092 63.8586 17.608C63.4866 18.124 63.2586 18.736 63.1746 19.444ZM86.9169 31.576C85.2489 31.576 83.7249 31.162 82.3449 30.334C80.9769 29.494 79.8849 28.336 79.0689 26.86C78.2529 25.384 77.8449 23.692 77.8449 21.784C77.8449 19.912 78.2409 18.244 79.0329 16.78C79.8249 15.304 80.9109 14.14 82.2909 13.288C83.6829 12.424 85.2729 11.992 87.0609 11.992C88.3569 11.992 89.5569 12.244 90.6609 12.748C91.7649 13.24 92.6829 13.93 93.4149 14.818V0.0399995H98.9409V31H93.4149V28.57C92.5989 29.518 91.6329 30.256 90.5169 30.784C89.4009 31.312 88.2009 31.576 86.9169 31.576ZM88.5729 26.878C89.5449 26.878 90.4029 26.662 91.1469 26.23C91.8909 25.786 92.4729 25.18 92.8929 24.412C93.3249 23.644 93.5409 22.774 93.5409 21.802C93.5409 20.818 93.3249 19.942 92.8929 19.174C92.4729 18.406 91.8909 17.8 91.1469 17.356C90.4029 16.912 89.5509 16.69 88.5909 16.69C87.6429 16.69 86.7969 16.912 86.0529 17.356C85.3209 17.8 84.7389 18.412 84.3069 19.192C83.8749 19.96 83.6589 20.836 83.6589 21.82C83.6589 22.792 83.8689 23.662 84.2889 24.43C84.7089 25.186 85.2909 25.786 86.0349 26.23C86.7789 26.662 87.6249 26.878 88.5729 26.878ZM106.543 31L115.084 9.55H118.243L126.797 31H123.131L121.025 25.41H112.315L110.196 31H106.543ZM113.472 22.42H119.868L116.657 14.126L113.472 22.42ZM128.528 31V9.55H131.934V31H128.528Z" fill="url(#paint0_linear_1555_68282)"/>
<path d="M103.373 31.32C103 31.32 102.66 31.23 102.353 31.05C102.053 30.87 101.813 30.63 101.633 30.33C101.46 30.0233 101.373 29.6867 101.373 29.32C101.373 28.9467 101.46 28.61 101.633 28.31C101.813 28.01 102.056 27.77 102.363 27.59C102.67 27.41 103.006 27.32 103.373 27.32C103.746 27.32 104.083 27.41 104.383 27.59C104.683 27.77 104.923 28.01 105.103 28.31C105.283 28.61 105.373 28.9467 105.373 29.32C105.373 29.6867 105.283 30.0233 105.103 30.33C104.923 30.63 104.683 30.87 104.383 31.05C104.083 31.23 103.746 31.32 103.373 31.32Z" fill="#E30016"/>
<circle cx="11.5" cy="7" r="4" fill="#0B82F1"/>
<defs>
<linearGradient id="paint0_linear_1555_68282" x1="166.426" y1="-6.90867" x2="18.5769" y2="18.2505" gradientUnits="userSpaceOnUse">
<stop stop-color="#343E47"/>
<stop offset="1" stop-color="#0E7EED"/>
</linearGradient>
</defs>
</svg>
