<svg width="204" height="31" viewBox="0 0 204 31" fill="none" xmlns="http://www.w3.org/2000/svg">
<path d="M138.078 30.3809V7.31909H141.74V30.3809H138.078Z" fill="url(#paint0_linear_216_1305)"/>
<path d="M114.448 30.3809L123.631 7.31909H127.027L136.224 30.3809H132.283L130.018 24.3709H120.654L118.376 30.3809H114.448ZM121.898 21.1562H128.775L125.322 12.2389L121.898 21.1562Z" fill="url(#paint1_linear_216_1305)"/>
<path d="M111.036 30.7243C110.635 30.7243 110.269 30.6275 109.939 30.434C109.617 30.2405 109.359 29.9824 109.165 29.6599C108.979 29.3302 108.886 28.9682 108.886 28.574C108.886 28.1726 108.979 27.8106 109.165 27.4881C109.359 27.1656 109.62 26.9075 109.95 26.714C110.28 26.5205 110.642 26.4237 111.036 26.4237C111.437 26.4237 111.799 26.5205 112.122 26.714C112.444 26.9075 112.703 27.1656 112.896 27.4881C113.09 27.8106 113.186 28.1726 113.186 28.574C113.186 28.9682 113.09 29.3302 112.896 29.6599C112.703 29.9824 112.444 30.2405 112.122 30.434C111.799 30.6275 111.437 30.7243 111.036 30.7243Z" fill="#E30016"/>
<path d="M93.3387 30.9994C91.5453 30.9994 89.9068 30.5543 88.4231 29.6641C86.9523 28.761 85.7783 27.516 84.9009 25.929C84.0236 24.3421 83.585 22.523 83.585 20.4716C83.585 18.459 84.0107 16.6656 84.8622 15.0916C85.7137 13.5047 86.8813 12.2532 88.365 11.3372C89.8616 10.4083 91.5711 9.94382 93.4935 9.94382C94.8869 9.94382 96.177 10.2148 97.364 10.7566C98.551 11.2856 99.5379 12.0275 100.325 12.9822V0H106.266V30.3801H100.325V27.7675C99.4476 28.7868 98.409 29.5802 97.2092 30.1479C96.0093 30.7156 94.7191 30.9994 93.3387 30.9994ZM95.1191 25.9484C96.1641 25.9484 97.0866 25.7162 97.8865 25.2517C98.6864 24.7743 99.3121 24.1228 99.7637 23.2971C100.228 22.4714 100.46 21.536 100.46 20.491C100.46 19.433 100.228 18.4912 99.7637 17.6655C99.3121 16.8398 98.6864 16.1883 97.8865 15.7109C97.0866 15.2335 96.1706 14.9948 95.1384 14.9948C94.1192 14.9948 93.2096 15.2335 92.4097 15.7109C91.6227 16.1883 90.997 16.8462 90.5325 17.6849C90.0681 18.5106 89.8358 19.4524 89.8358 20.5103C89.8358 21.5554 90.0616 22.4907 90.5132 23.3165C90.9647 24.1293 91.5905 24.7743 92.3904 25.2517C93.1903 25.7162 94.0999 25.9484 95.1191 25.9484Z" fill="url(#paint2_linear_216_1305)"/>
<path d="M72.7884 30.9999C70.6467 30.9999 68.7244 30.5419 67.0213 29.6259C65.3312 28.697 63.9894 27.4391 62.996 25.8521C62.0026 24.2652 61.5059 22.4719 61.5059 20.4721C61.5059 19.0013 61.7832 17.6273 62.338 16.35C62.9057 15.0728 63.6927 13.9568 64.699 13.002C65.7054 12.0344 66.873 11.2861 68.2018 10.7571C69.5307 10.2153 70.9693 9.94434 72.5175 9.94434C74.5817 9.94434 76.388 10.3765 77.9362 11.241C79.4973 12.0925 80.7101 13.2794 81.5745 14.8018C82.4518 16.3242 82.8904 18.0982 82.8904 20.1238C82.8904 20.2915 82.884 20.4399 82.8711 20.5689C82.8711 20.685 82.8517 20.9108 82.813 21.2462H67.6213C67.6213 22.2526 67.8471 23.1299 68.2986 23.8782C68.7631 24.6265 69.4082 25.2135 70.2339 25.6393C71.0596 26.0521 72.0208 26.2586 73.1174 26.2586C74.1495 26.2586 75.0591 26.0586 75.8461 25.6586C76.646 25.2587 77.4137 24.62 78.1491 23.7427L82.426 25.8909C81.4971 27.4907 80.1811 28.7421 78.4781 29.6452C76.775 30.5484 74.8785 30.9999 72.7884 30.9999ZM67.8341 17.9563H77.046C76.917 17.1951 76.6396 16.5371 76.2138 15.9823C75.801 15.4276 75.272 15.0018 74.6269 14.7051C73.9818 14.4083 73.2529 14.26 72.4401 14.26C71.5756 14.26 70.8144 14.4083 70.1565 14.7051C69.4985 15.0018 68.9695 15.4276 68.5695 15.9823C68.1696 16.5371 67.9245 17.1951 67.8341 17.9563Z" fill="url(#paint3_linear_216_1305)"/>
<path d="M50.8905 30.9999C48.7488 30.9999 46.8264 30.5419 45.1234 29.6259C43.4333 28.697 42.0915 27.4391 41.0981 25.8521C40.1046 24.2652 39.6079 22.4719 39.6079 20.4721C39.6079 19.0013 39.8853 17.6273 40.4401 16.35C41.0077 15.0728 41.7948 13.9568 42.8011 13.002C43.8074 12.0344 44.975 11.2861 46.3039 10.7571C47.6328 10.2153 49.0713 9.94434 50.6195 9.94434C52.6838 9.94434 54.49 10.3765 56.0382 11.241C57.5993 12.0925 58.8121 13.2794 59.6765 14.8018C60.5538 16.3242 60.9925 18.0982 60.9925 20.1238C60.9925 20.2915 60.986 20.4399 60.9731 20.5689C60.9731 20.685 60.9538 20.9108 60.9151 21.2462H45.7233C45.7233 22.2526 45.9491 23.1299 46.4007 23.8782C46.8651 24.6265 47.5102 25.2135 48.3359 25.6393C49.1616 26.0521 50.1228 26.2586 51.2195 26.2586C52.2516 26.2586 53.1612 26.0586 53.9482 25.6586C54.7481 25.2587 55.5157 24.62 56.2511 23.7427L60.528 25.8909C59.5991 27.4907 58.2831 28.7421 56.5801 29.6452C54.8771 30.5484 52.9805 30.9999 50.8905 30.9999ZM45.9362 17.9563H55.148C55.019 17.1951 54.7416 16.5371 54.3159 15.9823C53.903 15.4276 53.374 15.0018 52.729 14.7051C52.0839 14.4083 51.3549 14.26 50.5421 14.26C49.6777 14.26 48.9165 14.4083 48.2585 14.7051C47.6005 15.0018 47.0715 15.4276 46.6716 15.9823C46.2716 16.5371 46.0265 17.1951 45.9362 17.9563Z" fill="url(#paint4_linear_216_1305)"/>
<path d="M30.2517 31C28.5745 31 27.0714 30.7356 25.7426 30.2066C24.4266 29.6776 23.33 28.9035 22.4526 27.8843L24.9491 23.8976C25.7748 24.775 26.6392 25.4459 27.5424 25.9103C28.4455 26.3748 29.3486 26.607 30.2517 26.607C30.7549 26.607 31.1871 26.5231 31.5483 26.3554C31.9225 26.1877 32.2128 25.949 32.4192 25.6394C32.6385 25.3168 32.7482 24.9298 32.7482 24.4782C32.7482 23.9622 32.5998 23.5558 32.3031 23.259C32.0193 22.9623 31.5806 22.6913 30.9871 22.4462C30.3936 22.1882 29.626 21.8656 28.6842 21.4786C27.8843 21.1431 27.1166 20.7625 26.3812 20.3368C25.6458 19.911 25.0459 19.3691 24.5814 18.7112C24.1299 18.0532 23.9041 17.221 23.9041 16.2147C23.9041 14.989 24.246 13.9117 24.9298 12.9828C25.6136 12.041 26.5554 11.3056 27.7552 10.7766C28.968 10.2476 30.3614 9.98315 31.9354 9.98315C32.9159 9.98315 33.9416 10.1315 35.0125 10.4283C36.0962 10.725 37.2509 11.1766 38.4766 11.7829L36.4445 15.5954C34.7802 14.5246 33.2901 13.9891 31.9741 13.9891C31.2387 13.9891 30.6517 14.1504 30.213 14.4729C29.7744 14.7955 29.555 15.2019 29.555 15.6922C29.555 16.1566 29.7808 16.563 30.2324 16.9114C30.6968 17.2468 31.2581 17.55 31.916 17.8209C32.5869 18.079 33.2256 18.3177 33.8319 18.537C34.8254 18.8982 35.7027 19.2982 36.4639 19.7368C37.238 20.1755 37.8444 20.7496 38.283 21.4592C38.7217 22.1559 38.941 23.0913 38.941 24.2653C38.941 25.6974 38.5927 26.9166 37.896 27.923C37.2122 28.9164 36.2188 29.6776 34.9157 30.2066C33.6255 30.7356 32.0709 31 30.2517 31Z" fill="url(#paint5_linear_216_1305)"/>
<path d="M0.260254 30.381L8.71732 20.0274L1.46011 10.564H8.34963L12.3363 15.8859L16.3229 10.564H23.2124L15.9552 20.0274L24.4123 30.381H17.2905L12.3363 24.1108L7.382 30.381H0.260254Z" fill="url(#paint6_linear_216_1305)"/>
<path d="M16.7574 4.73992C16.7574 7.14756 14.8056 9.09934 12.398 9.09934C9.99035 9.09934 8.03857 7.14756 8.03857 4.73992C8.03857 2.33227 9.99035 0.380493 12.398 0.380493C14.8056 0.380493 16.7574 2.33227 16.7574 4.73992Z" fill="#0B82F1"/>
<rect x="151.739" y="4.00012" width="52" height="27" rx="6" fill="#1278DD"/>
<path d="M162.702 10.1819H164.376V20.0598C164.376 20.9414 164.214 21.6903 163.89 22.3066C163.566 22.9228 163.109 23.3906 162.52 23.71C161.931 24.0294 161.236 24.189 160.435 24.189C159.68 24.189 159.007 24.0519 158.418 23.7775C157.829 23.4986 157.365 23.1027 157.028 22.59C156.691 22.0772 156.522 21.4677 156.522 20.7615H158.168C158.168 21.1528 158.265 21.4947 158.458 21.7871C158.656 22.0749 158.926 22.2998 159.268 22.4618C159.61 22.6237 159.999 22.7047 160.435 22.7047C160.917 22.7047 161.326 22.6035 161.663 22.401C162.001 22.1986 162.257 21.9018 162.432 21.5104C162.612 21.1146 162.702 20.631 162.702 20.0598V10.1819ZM171.723 24.216C170.788 24.216 169.967 23.9934 169.261 23.5481C168.559 23.1027 168.01 22.4798 167.614 21.6791C167.223 20.8784 167.027 19.9428 167.027 18.8723C167.027 17.7927 167.223 16.8504 167.614 16.0452C168.01 15.2401 168.559 14.6148 169.261 14.1695C169.967 13.7242 170.788 13.5015 171.723 13.5015C172.659 13.5015 173.478 13.7242 174.179 14.1695C174.885 14.6148 175.434 15.2401 175.826 16.0452C176.221 16.8504 176.419 17.7927 176.419 18.8723C176.419 19.9428 176.221 20.8784 175.826 21.6791C175.434 22.4798 174.885 23.1027 174.179 23.5481C173.478 23.9934 172.659 24.216 171.723 24.216ZM171.723 22.7856C172.434 22.7856 173.019 22.6035 173.478 22.2391C173.936 21.8748 174.276 21.3957 174.496 20.802C174.717 20.2082 174.827 19.565 174.827 18.8723C174.827 18.1796 174.717 17.5341 174.496 16.9358C174.276 16.3376 173.936 15.8541 173.478 15.4852C173.019 15.1164 172.434 14.9319 171.723 14.9319C171.013 14.9319 170.428 15.1164 169.969 15.4852C169.51 15.8541 169.171 16.3376 168.95 16.9358C168.73 17.5341 168.62 18.1796 168.62 18.8723C168.62 19.565 168.73 20.2082 168.95 20.802C169.171 21.3957 169.51 21.8748 169.969 22.2391C170.428 22.6035 171.013 22.7856 171.723 22.7856ZM179.066 24.0001V10.1819H180.658V15.2828H180.793C180.91 15.1029 181.072 14.8735 181.279 14.5946C181.49 14.3112 181.792 14.0593 182.183 13.8389C182.579 13.614 183.114 13.5015 183.789 13.5015C184.662 13.5015 185.431 13.7197 186.096 14.156C186.762 14.5923 187.282 15.2108 187.655 16.0115C188.028 16.8121 188.215 17.7568 188.215 18.8453C188.215 19.9428 188.028 20.8942 187.655 21.6993C187.282 22.5 186.764 23.1207 186.103 23.5616C185.442 23.9979 184.68 24.216 183.816 24.216C183.15 24.216 182.617 24.1058 182.217 23.8854C181.816 23.6605 181.508 23.4064 181.292 23.123C181.077 22.8351 180.91 22.5967 180.793 22.4078H180.604V24.0001H179.066ZM180.631 18.8183C180.631 19.601 180.746 20.2914 180.975 20.8897C181.205 21.4834 181.54 21.949 181.981 22.2863C182.421 22.6192 182.961 22.7856 183.6 22.7856C184.266 22.7856 184.821 22.6102 185.267 22.2594C185.716 21.904 186.054 21.4272 186.279 20.829C186.508 20.2262 186.623 19.556 186.623 18.8183C186.623 18.0896 186.51 17.4329 186.285 16.8481C186.065 16.2589 185.73 15.7933 185.28 15.4515C184.835 15.1051 184.275 14.9319 183.6 14.9319C182.952 14.9319 182.408 15.0961 181.967 15.4245C181.526 15.7483 181.193 16.2027 180.969 16.7874C180.744 17.3677 180.631 18.0446 180.631 18.8183ZM197.992 15.9575L196.561 16.3623C196.471 16.1239 196.339 15.8923 196.163 15.6674C195.992 15.438 195.758 15.2491 195.461 15.1006C195.165 14.9522 194.785 14.878 194.321 14.878C193.687 14.878 193.158 15.0242 192.736 15.3165C192.317 15.6044 192.108 15.971 192.108 16.4163C192.108 16.8121 192.252 17.1248 192.54 17.3542C192.828 17.5836 193.278 17.7747 193.889 17.9277L195.428 18.3055C196.354 18.5304 197.045 18.8745 197.499 19.3378C197.953 19.7966 198.181 20.3881 198.181 21.1123C198.181 21.7061 198.01 22.2369 197.668 22.7047C197.33 23.1725 196.858 23.5413 196.251 23.8112C195.644 24.0811 194.937 24.216 194.132 24.216C193.075 24.216 192.2 23.9866 191.508 23.5278C190.815 23.069 190.376 22.3988 190.192 21.5172L191.703 21.1393C191.847 21.6971 192.119 22.1154 192.52 22.3943C192.925 22.6732 193.453 22.8126 194.105 22.8126C194.847 22.8126 195.437 22.6552 195.873 22.3403C196.314 22.021 196.534 21.6386 196.534 21.1933C196.534 20.8335 196.408 20.5321 196.156 20.2892C195.905 20.0418 195.518 19.8574 194.996 19.7359L193.269 19.3311C192.32 19.1062 191.622 18.7576 191.177 18.2853C190.736 17.8085 190.516 17.2125 190.516 16.4973C190.516 15.9125 190.68 15.3952 191.008 14.9454C191.341 14.4956 191.793 14.1425 192.365 13.8861C192.94 13.6297 193.593 13.5015 194.321 13.5015C195.347 13.5015 196.152 13.7264 196.737 14.1763C197.326 14.6261 197.744 15.2198 197.992 15.9575Z" fill="white"/>
<defs>
<linearGradient id="paint0_linear_216_1305" x1="178.824" y1="-10.3763" x2="19.865" y2="16.6734" gradientUnits="userSpaceOnUse">
<stop stop-color="#343E47"/>
<stop offset="1" stop-color="#0E7EED"/>
</linearGradient>
<linearGradient id="paint1_linear_216_1305" x1="178.831" y1="-10.3763" x2="19.872" y2="16.6734" gradientUnits="userSpaceOnUse">
<stop stop-color="#343E47"/>
<stop offset="1" stop-color="#0E7EED"/>
</linearGradient>
<linearGradient id="paint2_linear_216_1305" x1="178.822" y1="-10.3771" x2="19.8635" y2="16.6726" gradientUnits="userSpaceOnUse">
<stop stop-color="#343E47"/>
<stop offset="1" stop-color="#0E7EED"/>
</linearGradient>
<linearGradient id="paint3_linear_216_1305" x1="178.844" y1="-10.3766" x2="19.8853" y2="16.6731" gradientUnits="userSpaceOnUse">
<stop stop-color="#343E47"/>
<stop offset="1" stop-color="#0E7EED"/>
</linearGradient>
<linearGradient id="paint4_linear_216_1305" x1="178.834" y1="-10.3766" x2="19.8754" y2="16.6731" gradientUnits="userSpaceOnUse">
<stop stop-color="#343E47"/>
<stop offset="1" stop-color="#0E7EED"/>
</linearGradient>
<linearGradient id="paint5_linear_216_1305" x1="178.814" y1="-10.3765" x2="19.8556" y2="16.6732" gradientUnits="userSpaceOnUse">
<stop stop-color="#343E47"/>
<stop offset="1" stop-color="#0E7EED"/>
</linearGradient>
<linearGradient id="paint6_linear_216_1305" x1="178.828" y1="-10.3762" x2="19.8697" y2="16.6734" gradientUnits="userSpaceOnUse">
<stop stop-color="#343E47"/>
<stop offset="1" stop-color="#0E7EED"/>
</linearGradient>
</defs>
</svg>
